<?xml version="1.0" encoding="utf-8"?>
<!-- Generator: Adobe Illustrator 23.0.1, SVG Export Plug-In . SVG Version: 6.00 Build 0)  -->
<svg version="1.1" id="Layer_1" xmlns="http://www.w3.org/2000/svg" xmlns:xlink="http://www.w3.org/1999/xlink" x="0px" y="0px"
	 viewBox="0 0 595.28 841.89" style="enable-background:new 0 0 595.28 841.89;" xml:space="preserve">
<style type="text/css">
	.st0{fill:#ACACAC;}
</style>
<path class="st0" d="M259.48,180.86l-2.63-2.96c0.13-0.19,0.2-0.42,0.2-0.67v-3.15c0-0.44-0.35-0.79-0.79-0.79h-1.14
	c-0.44,0-0.79,0.35-0.79,0.79v0.99l-3.07-3.45c-0.33-0.37-0.56-0.51-0.88-0.13l-7.93,9.23c-0.41,0.48-0.01,1.16,0.69,1.16h1.91
	l-0.02,6.35c0,0.38,0.31,0.69,0.69,0.69l5.33,0.14v-4.31c0-0.45,0.36-0.81,0.81-0.81h1.6c0.45,0,0.81,0.36,0.81,0.81v4.31h1.94
	c0.38,0,0.69-0.31,0.69-0.69l0.02-6.35h1.88C259.51,182.02,259.91,181.33,259.48,180.86z"/>
</svg>
