<?xml version="1.0" encoding="utf-8"?>
<!-- Generator: Adobe Illustrator 23.0.1, SVG Export Plug-In . SVG Version: 6.00 Build 0)  -->
<svg version="1.1" id="Layer_1" xmlns="http://www.w3.org/2000/svg" xmlns:xlink="http://www.w3.org/1999/xlink" x="0px" y="0px"
	 viewBox="0 0 595.28 841.89" style="enable-background:new 0 0 595.28 841.89;" xml:space="preserve">
<style type="text/css">
	.st0{fill:#ABABAB;}
</style>
<g>
	<path class="st0" d="M312.04,414.92L312.04,414.92c-1.05-0.68-1.64-1.59-1.64-2.54v-3.22c0-1.7-1.98-3.1-4.55-3.3v-0.8
		c0-0.23-0.3-0.42-0.66-0.42l0,0c-0.37,0-0.66,0.19-0.66,0.42v0.8c-2.57,0.21-4.55,1.61-4.55,3.3v3.22c0,0.95-0.59,1.86-1.64,2.54
		l0,0c-1.18,0.76-1.84,1.78-1.84,2.85l0,0h17.37l0,0C313.88,416.71,313.22,415.68,312.04,414.92z"/>
	<path class="st0" d="M308.58,418.63c0.06,1.13-1.54,2.05-3.5,2.01c-1.77-0.03-3.22-0.99-3.28-2.01H308.58z"/>
</g>
</svg>
