<?xml version="1.0" encoding="utf-8"?>
<!-- Generator: Adobe Illustrator 23.0.1, SVG Export Plug-In . SVG Version: 6.00 Build 0)  -->
<svg version="1.1" id="Layer_1" xmlns="http://www.w3.org/2000/svg" xmlns:xlink="http://www.w3.org/1999/xlink" x="0px" y="0px"
	 viewBox="0 0 1125 2436" style="enable-background:new 0 0 1125 2436;" xml:space="preserve">
<style type="text/css">
	.st0{fill:#CCCCCC;}
</style>
<g>
	<g>
		<g>
			<path class="st0" d="M428.72,1319h-20.44l-9.6-31.36c-14.24-2.91-27.84-9.05-39.49-17.82l-29.8,13.64l-13.54-15.31l17.09-28.05
				c-5.25-9.13-8.97-18.96-11.07-29.27l-31.37-9.61v-20.44l31.37-9.61c2.9-14.18,9-27.73,17.72-39.35l-13.54-29.94l15.31-13.54
				l27.9,17.18c9.17-5.3,19.06-9.05,29.42-11.16l9.6-31.36h20.44l9.6,31.36c14.24,2.91,27.84,9.05,39.49,17.82l29.8-13.64
				l13.54,15.31l-17.09,28.05c5.25,9.13,8.97,18.96,11.07,29.27l31.37,9.61v20.44l-31.37,9.61c-2.9,14.18-9,27.73-17.72,39.35
				l13.54,29.94l-15.31,13.54l-27.9-17.18c-9.17,5.3-19.06,9.05-29.42,11.16L428.72,1319z M411.62,1314.48h13.75l9.42-30.77
				l1.34-0.25c10.78-2.04,21.04-5.93,30.48-11.56l1.18-0.7l27.37,16.85l10.3-9.11l-13.28-29.37l0.83-1.07
				c9.01-11.66,15.21-25.44,17.95-39.85l0.25-1.34l30.77-9.42v-13.76l-30.77-9.42l-0.25-1.34c-2.03-10.72-5.89-20.92-11.47-30.32
				l-0.69-1.17l16.76-27.52l-9.11-10.3l-29.23,13.38l-1.08-0.84c-11.69-9.07-25.52-15.31-40-18.05l-1.34-0.25l-9.42-30.77h-13.75
				l-9.42,30.77l-1.34,0.25c-10.78,2.04-21.04,5.93-30.48,11.56l-1.18,0.7l-27.37-16.85l-10.3,9.11l13.28,29.37l-0.83,1.07
				c-9.01,11.66-15.21,25.44-17.95,39.85l-0.25,1.34l-30.77,9.42v13.76l30.77,9.42l0.25,1.34c2.03,10.72,5.89,20.92,11.47,30.32
				l0.69,1.17l-16.76,27.52l9.11,10.3l29.23-13.38l1.08,0.84c11.69,9.07,25.52,15.31,40,18.05l1.34,0.25L411.62,1314.48z"/>
		</g>
		<g>
			<path class="st0" d="M418.5,1261.02c-38.61,0-70.02-31.41-70.02-70.02s31.41-70.02,70.02-70.02s70.02,31.41,70.02,70.02
				S457.11,1261.02,418.5,1261.02z M418.5,1125.49c-36.12,0-65.51,29.39-65.51,65.51s29.39,65.51,65.51,65.51
				c36.12,0,65.51-29.39,65.51-65.51S454.62,1125.49,418.5,1125.49z"/>
		</g>
	</g>
	<path class="st0" d="M440.34,1184.22c0-11.44-9.86-20.71-22.02-20.71s-22.02,9.27-22.02,20.71s10.05,34.64,22.21,34.64
		S440.34,1195.66,440.34,1184.22z"/>
	<ellipse class="st0" cx="419.25" cy="1239.94" rx="34.26" ry="16.56"/>
</g>
</svg>
